<svg width="40" height="40" viewBox="0 0 40 40" fill="none" xmlns="http://www.w3.org/2000/svg">
<path fill-rule="evenodd" clip-rule="evenodd" d="M28.67 0C35.448 0 40 4.756 40 11.832V28.168C40 35.244 35.448 40 28.67 40H11.332C4.554 40 0 35.244 0 28.168V11.832C0 4.756 4.554 0 11.332 0H28.67ZM28.67 3H11.332C6.272 3 3 6.466 3 11.832V28.168C3 33.534 6.272 37 11.332 37H28.67C33.73 37 37 33.534 37 28.168V11.832C37 6.466 33.73 3 28.67 3ZM20 10.3278C20.828 10.3278 21.5 10.9998 21.5 11.8278V24.54L26.434 19.5858C27.02 18.9958 27.968 18.9998 28.554 19.5818C29.14 20.1658 29.144 21.1158 28.558 21.7038L21.062 29.2318C21.013 29.2798 20.9623 29.3242 20.9088 29.365L21.062 29.2318C20.9833 29.3117 20.8963 29.3816 20.8031 29.4408C20.7804 29.4531 20.7582 29.4664 20.7357 29.4791C20.693 29.5053 20.6477 29.5279 20.6013 29.5482C20.5882 29.552 20.5762 29.5571 20.5641 29.562C20.5177 29.5827 20.4691 29.5996 20.4198 29.614C20.3892 29.6211 20.3588 29.6289 20.328 29.6358C20.2904 29.646 20.2527 29.6529 20.2146 29.6584C20.184 29.661 20.152 29.6645 20.1198 29.6671C20.0795 29.6722 20.0398 29.6738 20 29.6738L19.882 29.664L19.7965 29.6581C19.7925 29.6575 19.7884 29.657 19.7843 29.6564L20 29.6738C19.889 29.6738 19.779 29.6615 19.6722 29.6376C19.6412 29.6289 19.6108 29.6211 19.5808 29.6123C19.5309 29.5996 19.4823 29.5827 19.4348 29.5634C19.4238 29.5571 19.4118 29.552 19.3999 29.5468C19.3523 29.5279 19.307 29.5053 19.2628 29.4803C19.2418 29.4664 19.2196 29.4531 19.1978 29.4393C19.1603 29.4175 19.1247 29.3926 19.0901 29.3661C19.032 29.3198 18.9763 29.2704 18.9245 29.2171L11.442 21.7038C10.856 21.1158 10.86 20.1658 11.446 19.5818C12.034 18.9998 12.982 18.9958 13.566 19.5858L18.5 24.54V11.8278C18.5 10.9998 19.172 10.3278 20 10.3278Z" fill="#009696"/>
</svg>
